<svg width="673" height="68" viewBox="0 0 673 68" fill="none" xmlns="http://www.w3.org/2000/svg">
<path d="M0.500244 33.4202C0.500244 21.8202 8.12024 14.5002 20.5002 14.5002C32.8802 14.5002 39.3502 20.7102 39.3502 31.2802H26.7902C26.7102 27.0702 24.6402 24.9202 21.2402 24.9202C17.2402 24.9202 15.1102 27.6602 15.1102 33.3502C15.1102 39.0402 17.4002 41.7802 21.0202 41.7802C24.6402 41.7802 26.7902 39.7102 26.8602 35.5702H39.3502C39.3502 46.3602 32.7002 52.2002 20.0602 52.2002C7.42024 52.2002 0.500244 44.5802 0.500244 33.4202Z" fill="black" stroke="black" stroke-width="0.5" stroke-miterlimit="10"/>
<path d="M86.3602 35.4202H61.7502C62.1202 40.6702 64.2602 42.6602 68.2502 42.6602C71.5802 42.6602 73.6502 41.3302 73.8702 38.2302H86.3602C86.2102 46.8802 79.7802 52.2302 67.5802 52.2302C53.4702 52.2302 47.0402 44.6902 47.0402 33.7502C47.0402 21.1802 54.9502 14.5302 67.7302 14.5302C79.3402 14.5302 86.3602 20.3002 86.3602 32.0502V35.4202ZM73.8702 28.4202C73.8702 25.0902 71.8002 23.4202 68.2502 23.4202C64.7002 23.4202 62.6302 25.0502 61.9702 29.4202H73.8702V28.4202Z" fill="black" stroke="black" stroke-width="0.5" stroke-miterlimit="10"/>
<path d="M94.7102 15.0902H109.34L108.9 24.8502H109.05C110.75 18.4902 114.74 14.5002 122.87 14.5002C131.87 14.5002 136.69 19.6002 136.69 28.7702V51.6102H122.06V32.4602C122.06 28.4602 119.91 26.7002 116.29 26.7002C112 26.7002 109.34 29.2802 109.34 34.6102V51.6102H94.7102V15.0902Z" fill="black" stroke="black" stroke-width="0.5" stroke-miterlimit="10"/>
<path d="M148.59 38.7401V26.1101H143.59V15.1101H147.59C149.59 15.1101 150.47 14.1101 150.69 11.4901L151.21 6.83015H163.21V15.0901H174V26.0901H163.23V37.3401C163.23 40.3401 164.63 41.3401 168.77 41.3401C170.38 41.3383 171.987 41.191 173.57 40.9001V51.3801C170.802 51.9595 167.978 52.2345 165.15 52.2001C152.88 52.2001 148.59 47.0201 148.59 38.7401Z" fill="black" stroke="black" stroke-width="0.5" stroke-miterlimit="10"/>
<path d="M182.29 15.0902H196.93L196.5 25.2902H196.65C198.13 18.7902 201.65 14.5002 208.65 14.5002C216.33 14.5002 220.03 19.2302 220.03 29.0602C220.03 31.7202 219.81 35.4202 219.66 37.4902H207.05C207.2 35.7902 207.2 33.7902 207.2 32.6802C207.2 28.4702 205.65 26.7702 202.91 26.7702C199.29 26.7702 196.91 29.7702 196.91 36.3102V51.6102H182.29V15.0902Z" fill="black" stroke="black" stroke-width="0.5" stroke-miterlimit="10"/>
<path d="M227.82 41.5502C227.82 35.7902 231.74 31.5502 240.82 31.5502H252.5V28.9302C252.5 25.5302 250.73 24.0602 246.88 24.0602C243.63 24.0602 241.88 25.5302 241.88 28.0602C241.88 28.2102 241.88 28.8002 241.95 29.5402H229.15C229.004 28.735 228.931 27.9185 228.93 27.1002C228.93 19.3402 235.07 14.5302 247.63 14.5302C260.86 14.5302 267.15 20.4402 267.15 30.1302V51.6102H252.5C252.782 49.2873 252.929 46.9501 252.94 44.6102H252.87C251.76 49.1902 248.14 52.1502 241.34 52.1502C232.33 52.2002 227.82 47.8402 227.82 41.5502ZM252.5 38.4502V37.4502H244.96C242.52 37.4502 241.12 38.6302 241.12 40.4002C241.12 42.6202 242.89 43.8802 245.85 43.8802C250 43.9302 252.5 41.9302 252.5 38.4502Z" fill="black" stroke="black" stroke-width="0.5" stroke-miterlimit="10"/>
<path d="M275.87 0.380238H290.5V51.6102H275.87V0.380238Z" fill="black" stroke="black" stroke-width="0.5" stroke-miterlimit="10"/>
<path d="M320.5 15.0902H335.13L334.76 24.7002H334.84C336.53 18.6402 340.31 14.5002 347.18 14.5002C354.05 14.5002 358.41 17.9002 359.3 24.2602H359.37C360.85 18.4902 364.84 14.5002 371.72 14.5002C379.92 14.5002 384.06 19.5002 384.06 28.3202V51.6102H369.44V32.0202C369.44 28.6202 367.88 26.7002 365.08 26.7002C361.82 26.7002 359.53 29.2102 359.53 34.4602V51.6102H344.9V32.0202C344.9 28.6202 343.42 26.7002 340.54 26.7002C337.43 26.7002 335.14 29.2802 335.14 34.6102V51.6102H320.5V15.0902Z" fill="black" stroke="black" stroke-width="0.5" stroke-miterlimit="10"/>
<path d="M392.27 41.5502C392.27 35.7902 396.19 31.5502 405.27 31.5502H416.95V28.9302C416.95 25.5302 415.18 24.0602 411.33 24.0602C408.08 24.0602 406.33 25.5302 406.33 28.0602C406.33 28.2102 406.33 28.8002 406.4 29.5402H393.6C393.454 28.735 393.381 27.9185 393.38 27.1002C393.38 19.3402 399.52 14.5302 412.08 14.5302C425.31 14.5302 431.6 20.4402 431.6 30.1302V51.6102H416.96C417.242 49.2873 417.389 46.9501 417.4 44.6102H417.33C416.22 49.1902 412.6 52.1502 405.8 52.1502C396.78 52.2002 392.27 47.8402 392.27 41.5502ZM416.96 38.4502V37.4502H409.42C406.98 37.4502 405.58 38.6302 405.58 40.4002C405.58 42.6202 407.35 43.8802 410.31 43.8802C414.5 43.9302 416.96 41.9302 416.96 38.4502V38.4502Z" fill="black" stroke="black" stroke-width="0.5" stroke-miterlimit="10"/>
<path d="M440.24 15.0902H454.88L454.43 25.2902H454.58C456.06 18.7902 459.53 14.5002 466.58 14.5002C474.27 14.5002 477.97 19.2302 477.97 29.0602C477.97 31.7202 477.75 35.4202 477.6 37.4902H465C465.15 35.7902 465.15 33.7902 465.15 32.6802C465.15 28.4702 463.6 26.7702 460.86 26.7702C457.24 26.7702 454.86 29.7702 454.86 36.3102V51.6102H440.24V15.0902Z" fill="black" stroke="black" stroke-width="0.5" stroke-miterlimit="10"/>
<path d="M527.5 54.1901C527.5 62.4001 520.41 67.5001 506.29 67.5001C491.36 67.5001 484.71 63.8001 484.71 58.2601C484.71 54.9301 486.85 52.5701 490.99 52.2001V52.0501C489.861 51.4182 488.921 50.4947 488.271 49.376C487.62 48.2573 487.281 46.9844 487.29 45.6901C487.219 44.0241 487.736 42.3861 488.751 41.0627C489.765 39.7393 491.213 38.8145 492.84 38.4501V38.3801C490.743 37.4852 488.968 35.972 487.753 34.0423C486.538 32.1126 485.941 29.8583 486.04 27.5801C486.04 19.6801 492.32 14.5001 504.59 14.5001C508.378 14.3985 512.147 15.0511 515.68 16.4201V16.3501C514.992 15.8839 514.416 15.2706 513.994 14.5546C513.572 13.8386 513.315 13.0379 513.24 12.2101C513.24 9.40014 515.97 7.41014 521.74 7.41014C523.199 7.39113 524.657 7.4881 526.1 7.70013V16.5001C525.437 16.4104 524.769 16.3603 524.1 16.3501C521.88 16.3501 520.85 17.2401 520.85 18.7101C520.932 19.547 521.13 20.3684 521.44 21.1501C522.588 23.0959 523.177 25.3211 523.14 27.5801C523.14 35.5801 516.78 40.5801 504.59 40.5801C502.711 40.5765 500.834 40.4529 498.97 40.2101C498.677 40.7573 498.526 41.3693 498.53 41.9901C498.53 43.3201 499.53 44.1301 501.26 44.1301H513.31C522.88 44.1401 527.5 48.1301 527.5 54.1901ZM513.04 56.9301C513.04 55.3001 511.79 54.4101 508.39 54.4101H502.62C500.48 54.4101 499.08 55.4101 499.08 57.0801C499.08 59.2201 501.59 60.4001 506.17 60.4001C510.75 60.4001 513.04 59.1401 513.04 56.9301ZM499.81 27.5801C499.81 31.0601 501.59 32.9101 504.62 32.9101C507.65 32.9101 509.42 31.0601 509.42 27.5801C509.42 24.1001 507.72 22.2601 504.62 22.2601C501.52 22.2601 499.81 24.0401 499.81 27.5801Z" fill="black" stroke="black" stroke-width="0.5" stroke-miterlimit="10"/>
<path d="M535.44 15.0902H550.07V51.6102H535.44V15.0902ZM535.44 1.79024H550.15V11.7902H535.44V1.79024Z" fill="black" stroke="black" stroke-width="0.5" stroke-miterlimit="10"/>
<path d="M559.31 15.0902H573.95L573.5 24.8502H573.65C575.35 18.4902 579.34 14.5002 587.47 14.5002C596.47 14.5002 601.3 19.6002 601.3 28.7702V51.6102H586.66V32.4602C586.66 28.4602 584.52 26.7002 580.9 26.7002C576.61 26.7002 573.95 29.2802 573.95 34.6102V51.6102H559.31V15.0902Z" fill="black" stroke="black" stroke-width="0.5" stroke-miterlimit="10"/>
<path d="M609.5 41.5502C609.5 35.7902 613.42 31.5502 622.5 31.5502H634.18V28.9302C634.18 25.5302 632.4 24.0602 628.56 24.0602C625.31 24.0602 623.56 25.5302 623.56 28.0602C623.56 28.5546 623.587 29.0487 623.64 29.5402H610.83C610.679 28.7357 610.606 27.9187 610.61 27.1002C610.61 19.3402 616.74 14.5302 629.31 14.5302C642.54 14.5302 648.82 20.4402 648.82 30.1302V51.6102H634.19C634.472 49.2873 634.619 46.9501 634.63 44.6102H634.56C633.45 49.1902 629.83 52.1502 623.03 52.1502C614.01 52.2002 609.5 47.8402 609.5 41.5502ZM634.19 38.4502V37.4502H626.65C624.21 37.4502 622.8 38.6302 622.8 40.4002C622.8 42.6202 624.58 43.8802 627.53 43.8802C631.67 43.9302 634.19 41.9302 634.19 38.4502V38.4502Z" fill="black" stroke="black" stroke-width="0.5" stroke-miterlimit="10"/>
<path d="M657.5 0.380238H672.14V51.6102H657.5V0.380238Z" fill="black" stroke="black" stroke-width="0.5" stroke-miterlimit="10"/>
</svg>
