<svg id="Layer_1" data-name="Layer 1" xmlns="http://www.w3.org/2000/svg" viewBox="0 0 96.44 720"><defs><style>.cls-1{stroke:#000;stroke-miterlimit:10;stroke-width:0.5px;}</style></defs><path class="cls-1" d="M43.51,26c11.6,0,18.92,7.62,18.92,20S56.22,64.85,45.65,64.85V52.29c4.21-.08,6.36-2.15,6.36-5.55,0-4-2.74-6.13-8.43-6.13s-8.43,2.29-8.43,5.91,2.07,5.77,6.21,5.84V64.85c-10.79,0-16.63-6.65-16.63-19.29S32.35,26,43.51,26Z"/><path class="cls-1" d="M41.51,111.86V87.25c-5.25.37-7.24,2.51-7.24,6.5,0,3.33,1.33,5.4,4.43,5.62v12.49c-8.65-.15-14-6.58-14-18.78,0-14.11,7.54-20.54,18.48-20.54,12.57,0,19.22,7.91,19.22,20.69,0,11.61-5.77,18.63-17.52,18.63Zm7-12.49c3.33,0,5-2.07,5-5.62s-1.63-5.62-6-6.28v11.9Z"/><path class="cls-1" d="M61.84,120.21v14.63l-9.76-.44v.15c6.36,1.7,10.35,5.69,10.35,13.82,0,9-5.1,13.82-14.27,13.82H25.32V147.56H44.47c4,0,5.76-2.15,5.76-5.77,0-4.29-2.58-6.95-7.91-6.95h-17V120.21Z"/><path class="cls-1" d="M38.19,174.09H50.82v-5h11v4c0,2,1,2.88,3.62,3.1l4.66.52v12H61.84v10.79h-11V188.73H39.59c-3,0-4,1.4-4,5.54a26.74,26.74,0,0,0,.44,4.8H25.55a38.8,38.8,0,0,1-.82-8.42C24.73,178.38,29.91,174.09,38.19,174.09Z"/><path class="cls-1" d="M61.84,207.79v14.64L51.64,222v.15c6.5,1.48,10.79,5,10.79,12,0,7.68-4.73,11.38-14.56,11.38-2.66,0-6.36-.22-8.43-.37V232.55c1.7.15,3.7.15,4.81.15,4.21,0,5.91-1.55,5.91-4.29,0-3.62-3-6-9.54-6H25.32V207.79Z"/><path class="cls-1" d="M35.38,253.32c5.76,0,10,3.92,10,13V278H48c3.4,0,4.87-1.77,4.87-5.62,0-3.25-1.47-5-4-5-.15,0-.74,0-1.48.07V254.65a13.75,13.75,0,0,1,2.44-.22c7.76,0,12.57,6.14,12.57,18.7,0,13.23-5.91,19.52-15.6,19.52H25.32V278a60.53,60.53,0,0,0,7,.44v-.07c-4.58-1.11-7.54-4.73-7.54-11.53C24.73,257.83,29.09,253.32,35.38,253.32ZM38.48,278h1v-7.54c0-2.44-1.18-3.84-2.95-3.84-2.22,0-3.48,1.77-3.48,4.73C33,275.5,35,278,38.48,278Z"/><path class="cls-1" d="M76.55,301.37V316H25.32V301.37Z"/><path class="cls-1" d="M61.84,346v14.63l-9.61-.37v.08c6.06,1.69,10.2,5.47,10.2,12.34s-3.4,11.23-9.76,12.12v.07c5.77,1.48,9.76,5.47,9.76,12.35,0,8.2-5,12.34-13.82,12.34H25.32V394.94H44.91c3.4,0,5.32-1.56,5.32-4.36,0-3.26-2.51-5.55-7.76-5.55H25.32V370.4H44.91c3.4,0,5.32-1.48,5.32-4.36,0-3.11-2.58-5.4-7.91-5.4h-17V346Z"/><path class="cls-1" d="M35.38,417.77c5.76,0,10,3.92,10,13v11.68H48c3.4,0,4.87-1.77,4.87-5.62,0-3.25-1.47-5-4-5-.15,0-.74,0-1.48.07V419.1a13.75,13.75,0,0,1,2.44-.22c7.76,0,12.57,6.14,12.57,18.7,0,13.23-5.91,19.52-15.6,19.52H25.32V442.46a60.53,60.53,0,0,0,7,.44v-.07c-4.58-1.11-7.54-4.73-7.54-11.53C24.73,422.28,29.09,417.77,35.38,417.77Zm3.1,24.69h1v-7.54c0-2.44-1.18-3.84-2.95-3.84-2.22,0-3.48,1.77-3.48,4.73C33,440,35,442.46,38.48,442.46Z"/><path class="cls-1" d="M61.84,465.74v14.64l-10.2-.45v.15c6.5,1.48,10.79,4.95,10.79,12,0,7.69-4.73,11.39-14.56,11.39-2.66,0-6.36-.22-8.43-.37V490.5c1.7.15,3.7.15,4.81.15,4.21,0,5.91-1.55,5.91-4.29,0-3.62-3-6-9.54-6H25.32V465.74Z"/><path class="cls-1" d="M22.74,553c-8.21,0-13.31-7.09-13.31-21.21,0-14.93,3.7-21.58,9.24-21.58,3.33,0,5.69,2.14,6.06,6.28h.15a7.23,7.23,0,0,1,6.36-3.7,7.11,7.11,0,0,1,7.24,5.55h.07a11.21,11.21,0,0,1,10.8-6.8c7.9,0,13.08,6.28,13.08,18.55a28.57,28.57,0,0,1-1.92,11.09h.07a5.61,5.61,0,0,1,4.14-2.44c2.81,0,4.8,2.73,4.8,8.5a27.53,27.53,0,0,1-.29,4.36h-8.8a16.82,16.82,0,0,0,.15-2c0-2.22-.89-3.25-2.36-3.25a9,9,0,0,0-2.44.59,12.26,12.26,0,0,1-6.43,1.7c-8,0-13-6.36-13-18.55a44.18,44.18,0,0,1,.37-5.62,3.71,3.71,0,0,0-1.78-.44c-1.33,0-2.14,1-2.14,2.73v12.05C32.79,548.38,28.8,553,22.74,553ZM20,538.54c1.63,0,2.52-1.25,2.52-4.65v-5.77c0-2.14-1-3.54-2.67-3.54-2.14,0-3.32,2.51-3.32,7.09S17.79,538.54,20,538.54Zm29.35-13.23c-3.48,0-5.33,1.78-5.33,4.81s1.85,4.8,5.33,4.8,5.32-1.7,5.32-4.8S52.89,525.31,49.35,525.31Z"/><path class="cls-1" d="M61.84,560.94v14.63H25.32V560.94Zm13.3,0v14.71h-10V560.94Z"/><path class="cls-1" d="M61.84,584.81v14.64L52.08,599v.15c6.36,1.7,10.35,5.69,10.35,13.82,0,9-5.1,13.83-14.27,13.83H25.32V612.16H44.47c4,0,5.76-2.14,5.76-5.76,0-4.29-2.58-6.95-7.91-6.95h-17V584.81Z"/><path class="cls-1" d="M35.38,635c5.76,0,10,3.92,10,13v11.68H48c3.4,0,4.87-1.78,4.87-5.62,0-3.25-1.47-5-4-5a13.88,13.88,0,0,0-1.48.08V636.33a12.88,12.88,0,0,1,2.44-.22c7.76,0,12.57,6.13,12.57,18.7,0,13.23-5.91,19.51-15.6,19.51H25.32V659.69a60.53,60.53,0,0,0,7,.44v-.07c-4.58-1.11-7.54-4.73-7.54-11.53C24.73,639.51,29.09,635,35.38,635Zm3.1,24.69h1v-7.54c0-2.44-1.18-3.85-2.95-3.85-2.22,0-3.48,1.78-3.48,4.73C33,657.17,35,659.69,38.48,659.69Z"/><path class="cls-1" d="M76.55,683v14.64H25.32V683Z"/></svg>